<svg xmlns="http://www.w3.org/2000/svg" viewBox="0 0 1280 720" role="img" aria-label="Stylized Roblox garden field">
  <defs>
    <linearGradient id="sky" x1="0" y1="0" x2="0" y2="1">
      <stop offset="0" stop-color="#6ebbd4"/>
      <stop offset="1" stop-color="#e4d896"/>
    </linearGradient>
    <linearGradient id="soil" x1="0" y1="0" x2="0" y2="1">
      <stop offset="0" stop-color="#2e5731"/>
      <stop offset="1" stop-color="#151912"/>
    </linearGradient>
  </defs>
  <rect width="1280" height="720" fill="url(#sky)"/>
  <circle cx="1040" cy="120" r="62" fill="#f2c84b"/>
  <path d="M0 344c190-56 372-58 548-8 186 54 386 44 732-56v440H0Z" fill="url(#soil)"/>
  <g opacity=".88">
    <path d="M92 580c116-86 240-148 376-178 143-32 304-22 486 32" fill="none" stroke="#74a85e" stroke-width="20"/>
    <path d="M60 648c170-96 322-150 456-162 158-14 324 24 626 118" fill="none" stroke="#a47843" stroke-width="24"/>
  </g>
  <g fill="#66c46a">
    <path d="M285 452c-24-44-12-80 38-108 21 49 8 85-38 108Z"/>
    <path d="M482 416c-14-52 8-88 64-106 10 55-12 90-64 106Z"/>
    <path d="M748 452c-18-42 0-78 54-108 15 49-2 85-54 108Z"/>
  </g>
  <g fill="#f2c84b">
    <rect x="242" y="478" width="92" height="70" rx="10"/>
    <rect x="452" y="444" width="88" height="74" rx="10"/>
    <rect x="716" y="482" width="96" height="72" rx="10"/>
  </g>
  <g fill="#202824" opacity=".7">
    <rect x="102" y="388" width="116" height="84" rx="12"/>
    <rect x="912" y="362" width="136" height="96" rx="12"/>
  </g>
</svg>
